<mxfile host="app.diagrams.net" modified="2022-09-29T21:32:03.646Z" agent="5.0 (Windows NT 10.0; Win64; x64) AppleWebKit/537.36 (KHTML, like Gecko) Chrome/106.0.0.0 Safari/537.36" etag="mCFYPaAmbwjRnyZmnv8-" version="20.3.7" type="github">
  <diagram name="Page-1" id="03018318-947c-dd8e-b7a3-06fadd420f32">
    <mxGraphModel dx="2683" dy="1754" grid="1" gridSize="10" guides="1" tooltips="1" connect="1" arrows="1" fold="1" page="1" pageScale="1" pageWidth="1100" pageHeight="850" background="none" math="0" shadow="0">
      <root>
        <mxCell id="0" />
        <mxCell id="1" parent="0" />
        <mxCell id="en6F7Ufg05P-uTRN20QV-46" value="" style="verticalLabelPosition=bottom;shadow=0;dashed=0;align=center;html=1;verticalAlign=top;strokeWidth=1;shape=mxgraph.mockup.graphics.simpleIcon;strokeColor=#999999;fontSize=34;fontColor=#0A0A0A;" parent="1" vertex="1">
          <mxGeometry x="130" y="480" width="170" height="200" as="geometry" />
        </mxCell>
        <mxCell id="en6F7Ufg05P-uTRN20QV-45" value="" style="verticalLabelPosition=bottom;shadow=0;dashed=0;align=center;html=1;verticalAlign=top;strokeWidth=1;shape=mxgraph.mockup.graphics.simpleIcon;strokeColor=#999999;fontSize=34;fontColor=#0A0A0A;" parent="1" vertex="1">
          <mxGeometry x="800" y="480" width="170" height="200" as="geometry" />
        </mxCell>
        <mxCell id="en6F7Ufg05P-uTRN20QV-44" value="" style="verticalLabelPosition=bottom;shadow=0;dashed=0;align=center;html=1;verticalAlign=top;strokeWidth=1;shape=mxgraph.mockup.graphics.simpleIcon;strokeColor=#999999;fontSize=34;fontColor=#0A0A0A;" parent="1" vertex="1">
          <mxGeometry x="465" y="480" width="175" height="200" as="geometry" />
        </mxCell>
        <mxCell id="en6F7Ufg05P-uTRN20QV-43" value="" style="verticalLabelPosition=bottom;shadow=0;dashed=0;align=center;html=1;verticalAlign=top;strokeWidth=1;shape=mxgraph.mockup.graphics.simpleIcon;strokeColor=#999999;fontSize=34;fontColor=#0A0A0A;" parent="1" vertex="1">
          <mxGeometry x="30" y="125" width="1040" height="110" as="geometry" />
        </mxCell>
        <mxCell id="677b7b8949515195-1" value="" style="whiteSpace=wrap;html=1;rounded=0;shadow=0;labelBackgroundColor=none;strokeColor=#000000;strokeWidth=1;fillColor=none;fontFamily=Verdana;fontSize=12;fontColor=#000000;align=center;comic=1;" parent="1" vertex="1">
          <mxGeometry x="20" y="30" width="1080" height="810" as="geometry" />
        </mxCell>
        <mxCell id="677b7b8949515195-2" value="LOGO" style="whiteSpace=wrap;html=1;rounded=0;shadow=0;labelBackgroundColor=none;strokeWidth=1;fontFamily=Verdana;fontSize=28;align=center;comic=1;" parent="1" vertex="1">
          <mxGeometry x="30" y="40" width="120" height="50" as="geometry" />
        </mxCell>
        <mxCell id="677b7b8949515195-10" value="&lt;font style=&quot;font-size: 34px;&quot; color=&quot;#0a0a0a&quot;&gt;TITTEL&lt;br&gt;(&lt;/font&gt;&lt;font style=&quot;font-size: 16px;&quot; color=&quot;#0a0a0a&quot;&gt;og &lt;/font&gt;&lt;font style=&quot;font-size: 15px;&quot; color=&quot;#0a0a0a&quot;&gt;bakgrunnsbilde&lt;/font&gt;&lt;font style=&quot;font-size: 34px;&quot; color=&quot;#0a0a0a&quot;&gt;)&lt;br&gt;&lt;/font&gt;" style="whiteSpace=wrap;html=1;rounded=0;shadow=0;labelBackgroundColor=none;strokeWidth=1;fillColor=none;fontFamily=Verdana;fontSize=12;align=center;comic=1;" parent="1" vertex="1">
          <mxGeometry x="25" y="125" width="1060" height="110" as="geometry" />
        </mxCell>
        <mxCell id="en6F7Ufg05P-uTRN20QV-2" value="&lt;span style=&quot;font-size: 17px;&quot;&gt;Kontaktinformasjon&lt;/span&gt;" style="whiteSpace=wrap;html=1;rounded=0;shadow=0;labelBackgroundColor=none;strokeWidth=1;fillColor=none;fontFamily=Verdana;fontSize=12;align=center;comic=1;" parent="1" vertex="1">
          <mxGeometry x="40" y="790" width="1020" height="30" as="geometry" />
        </mxCell>
        <mxCell id="en6F7Ufg05P-uTRN20QV-4" value="" style="whiteSpace=wrap;html=1;rounded=0;shadow=0;labelBackgroundColor=none;strokeWidth=1;fillColor=none;fontFamily=Verdana;fontSize=12;align=center;comic=1;" parent="1" vertex="1">
          <mxGeometry x="32.5" y="260" width="1057.5" height="500" as="geometry" />
        </mxCell>
        <mxCell id="677b7b8949515195-26" value="" style="whiteSpace=wrap;html=1;rounded=0;shadow=0;labelBackgroundColor=none;strokeWidth=1;fillColor=none;fontFamily=Verdana;fontSize=12;align=center;comic=1;" parent="1" vertex="1">
          <mxGeometry x="435" y="460" width="230" height="280" as="geometry" />
        </mxCell>
        <mxCell id="677b7b8949515195-15" value="&lt;div style=&quot;text-align: justify&quot;&gt;&lt;br&gt;&lt;/div&gt;" style="whiteSpace=wrap;html=1;rounded=0;shadow=0;labelBackgroundColor=none;strokeWidth=1;fillColor=none;fontFamily=Verdana;fontSize=12;align=center;verticalAlign=top;spacing=10;comic=1;" parent="1" vertex="1">
          <mxGeometry x="100" y="460" width="230" height="280" as="geometry" />
        </mxCell>
        <mxCell id="677b7b8949515195-25" value="" style="whiteSpace=wrap;html=1;rounded=0;shadow=0;labelBackgroundColor=none;strokeWidth=1;fillColor=none;fontFamily=Verdana;fontSize=12;align=center;comic=1;" parent="1" vertex="1">
          <mxGeometry x="770" y="460" width="230" height="280" as="geometry" />
        </mxCell>
        <mxCell id="en6F7Ufg05P-uTRN20QV-5" value="&lt;font face=&quot;Verdana&quot; color=&quot;#0a0a0a&quot; style=&quot;font-size: 20px;&quot;&gt;&lt;b&gt;Article&lt;/b&gt;&lt;/font&gt;" style="strokeWidth=1;shadow=0;dashed=0;align=center;html=1;shape=mxgraph.mockup.text.callout;linkText=;textSize=17;textColor=#666666;callDir=NW;callStyle=line;fontSize=17;fontColor=#666666;align=left;verticalAlign=top;strokeColor=#666666;" parent="1" vertex="1">
          <mxGeometry x="-70" y="390" width="200" height="100" as="geometry" />
        </mxCell>
        <mxCell id="en6F7Ufg05P-uTRN20QV-9" value="&lt;h1 style=&quot;text-align: center;&quot;&gt;&lt;span style=&quot;background-color: initial;&quot;&gt;UU vs SEO&lt;/span&gt;&lt;/h1&gt;&lt;h1 style=&quot;text-align: center;&quot;&gt;&lt;span style=&quot;background-color: initial; font-size: 12px; font-weight: normal;&quot;&gt;Lorem ipsum dolor sit amet, consectetur adipisicing elit, sed do eiusmod tempor incididunt ut labore et dolore magna aliqua.&lt;/span&gt;&lt;br&gt;&lt;/h1&gt;" style="text;html=1;strokeColor=none;fillColor=none;spacing=5;spacingTop=-20;whiteSpace=wrap;overflow=hidden;rounded=0;" parent="1" vertex="1">
          <mxGeometry x="120" y="490" width="190" height="240" as="geometry" />
        </mxCell>
        <mxCell id="en6F7Ufg05P-uTRN20QV-11" value="&lt;h1 style=&quot;text-align: center;&quot;&gt;&lt;span style=&quot;background-color: initial;&quot;&gt;CMS&lt;/span&gt;&lt;/h1&gt;&lt;h1 style=&quot;text-align: center;&quot;&gt;&lt;span style=&quot;background-color: initial; font-size: 12px; font-weight: normal;&quot;&gt;Lorem ipsum dolor sit amet, consectetur adipisicing elit, sed do eiusmod tempor incididunt ut labore et dolore magna aliqua.&lt;/span&gt;&lt;br&gt;&lt;/h1&gt;" style="text;html=1;strokeColor=none;fillColor=none;spacing=5;spacingTop=-20;whiteSpace=wrap;overflow=hidden;rounded=0;" parent="1" vertex="1">
          <mxGeometry x="455" y="480" width="190" height="240" as="geometry" />
        </mxCell>
        <mxCell id="en6F7Ufg05P-uTRN20QV-12" value="&lt;h1 style=&quot;text-align: center;&quot;&gt;&lt;span style=&quot;background-color: initial;&quot;&gt;Analyse&lt;/span&gt;&lt;/h1&gt;&lt;h1 style=&quot;text-align: center;&quot;&gt;&lt;span style=&quot;background-color: initial; font-size: 12px; font-weight: normal;&quot;&gt;Lorem ipsum dolor sit amet, consectetur adipisicing elit, sed do eiusmod tempor incididunt ut labore et dolore magna aliqua.&lt;/span&gt;&lt;br&gt;&lt;/h1&gt;" style="text;html=1;strokeColor=none;fillColor=none;spacing=5;spacingTop=-20;whiteSpace=wrap;overflow=hidden;rounded=0;" parent="1" vertex="1">
          <mxGeometry x="790" y="480" width="190" height="240" as="geometry" />
        </mxCell>
        <mxCell id="en6F7Ufg05P-uTRN20QV-33" value="&lt;font face=&quot;Verdana&quot; color=&quot;#0a0a0a&quot; size=&quot;1&quot; style=&quot;&quot;&gt;&lt;b style=&quot;font-size: 20px;&quot;&gt;NAV&lt;/b&gt;&lt;/font&gt;" style="strokeWidth=1;shadow=0;dashed=0;align=center;html=1;shape=mxgraph.mockup.text.callout;linkText=;textSize=17;textColor=#666666;callDir=NE;callStyle=line;fontSize=17;fontColor=#666666;align=right;verticalAlign=top;strokeColor=#666666;" parent="1" vertex="1">
          <mxGeometry x="540" y="-60" width="200" height="100" as="geometry" />
        </mxCell>
        <mxCell id="en6F7Ufg05P-uTRN20QV-34" value="&lt;b&gt;&lt;font color=&quot;#0a0a0a&quot; face=&quot;Verdana&quot; style=&quot;font-size: 20px;&quot;&gt;Logo&lt;/font&gt;&lt;/b&gt;" style="strokeWidth=1;shadow=0;dashed=0;align=center;html=1;shape=mxgraph.mockup.text.callout;linkText=;textSize=17;textColor=#666666;callDir=NW;callStyle=line;fontSize=17;fontColor=#666666;align=left;verticalAlign=top;strokeColor=#666666;" parent="1" vertex="1">
          <mxGeometry y="-60" width="200" height="100" as="geometry" />
        </mxCell>
        <mxCell id="en6F7Ufg05P-uTRN20QV-75" value="&lt;b&gt;&lt;font face=&quot;Verdana&quot;&gt;h1&lt;/font&gt;&lt;/b&gt;" style="strokeWidth=1;shadow=0;dashed=0;align=center;html=1;shape=mxgraph.mockup.text.callout;linkText=;textSize=17;textColor=#666666;callDir=SE;callStyle=line;fontSize=17;fontColor=#666666;align=right;verticalAlign=bottom;strokeColor=#666666;" parent="1" vertex="1">
          <mxGeometry x="615" y="190" width="185" height="20" as="geometry" />
        </mxCell>
        <mxCell id="en6F7Ufg05P-uTRN20QV-89" value="&lt;b&gt;&lt;font face=&quot;Verdana&quot;&gt;h2&lt;/font&gt;&lt;/b&gt;" style="strokeWidth=1;shadow=0;dashed=0;align=center;html=1;shape=mxgraph.mockup.text.callout;linkText=;textSize=17;textColor=#666666;callDir=NW;callStyle=line;fontSize=17;fontColor=#666666;align=left;verticalAlign=top;strokeColor=#666666;labelBackgroundColor=default;labelBorderColor=default;rotation=-15;" parent="1" vertex="1">
          <mxGeometry x="-130" y="-20" width="200" height="100" as="geometry" />
        </mxCell>
        <mxCell id="en6F7Ufg05P-uTRN20QV-91" value="&lt;font color=&quot;#0a0a0a&quot; style=&quot;font-size: 20px;&quot;&gt;&lt;b style=&quot;&quot;&gt;HEADER&lt;/b&gt;&lt;/font&gt;" style="strokeWidth=1;shadow=0;dashed=0;align=center;html=1;shape=mxgraph.mockup.text.callout;linkText=;textSize=17;textColor=#666666;callDir=NW;callStyle=line;fontSize=17;fontColor=#666666;align=left;verticalAlign=top;strokeColor=#666666;labelBackgroundColor=default;labelBorderColor=default;fontFamily=Verdana;" parent="1" vertex="1">
          <mxGeometry x="310" y="90" width="190" height="90" as="geometry" />
        </mxCell>
        <mxCell id="en6F7Ufg05P-uTRN20QV-92" value="&lt;b&gt;h3&lt;/b&gt;" style="strokeWidth=1;shadow=0;dashed=0;align=center;html=1;shape=mxgraph.mockup.text.callout;linkText=;textSize=17;textColor=#666666;callDir=NW;callStyle=line;fontSize=17;fontColor=#666666;align=left;verticalAlign=top;strokeColor=#666666;labelBackgroundColor=default;labelBorderColor=default;fontFamily=Verdana;" parent="1" vertex="1">
          <mxGeometry x="-90" y="510" width="240" height="10" as="geometry" />
        </mxCell>
        <mxCell id="en6F7Ufg05P-uTRN20QV-96" value="&lt;b&gt;h3&lt;/b&gt;" style="strokeWidth=1;shadow=0;dashed=0;align=center;html=1;shape=mxgraph.mockup.text.callout;linkText=;textSize=17;textColor=#666666;callDir=NW;callStyle=line;fontSize=17;fontColor=#666666;align=left;verticalAlign=top;strokeColor=#666666;labelBackgroundColor=default;labelBorderColor=default;fontFamily=Verdana;" parent="1" vertex="1">
          <mxGeometry x="687.5" y="460" width="150" height="10" as="geometry" />
        </mxCell>
        <mxCell id="6DZIsmZMGNLHSjSYDAZW-1" value="&lt;b&gt;h3&amp;nbsp;&lt;/b&gt;" style="strokeWidth=1;shadow=0;dashed=0;align=center;html=1;shape=mxgraph.mockup.text.callout;linkText=;textSize=17;textColor=#666666;callDir=NE;callStyle=line;fontSize=17;fontColor=#666666;align=right;verticalAlign=top;strokeColor=#666666;labelBackgroundColor=default;labelBorderColor=default;fontFamily=Verdana;" parent="1" vertex="1">
          <mxGeometry x="970" y="-45" width="200" height="100" as="geometry" />
        </mxCell>
        <mxCell id="6DZIsmZMGNLHSjSYDAZW-2" value="&lt;b&gt;&lt;font color=&quot;#0a0a0a&quot; style=&quot;font-size: 20px;&quot; face=&quot;Verdana&quot;&gt;MAIN&lt;/font&gt;&lt;/b&gt;" style="strokeWidth=1;shadow=0;dashed=0;align=center;html=1;shape=mxgraph.mockup.text.callout;linkText=;textSize=17;textColor=#666666;callDir=NE;callStyle=line;fontSize=17;fontColor=#666666;align=right;verticalAlign=top;strokeColor=#0A0A0A;" parent="1" vertex="1">
          <mxGeometry x="1000" y="270" width="200" height="60" as="geometry" />
        </mxCell>
        <mxCell id="6DZIsmZMGNLHSjSYDAZW-5" value="&lt;font color=&quot;#0a0a0a&quot; style=&quot;font-size: 20px;&quot;&gt;&lt;b&gt;FOOTER&lt;/b&gt;&lt;/font&gt;" style="strokeWidth=1;shadow=0;dashed=0;align=center;html=1;shape=mxgraph.mockup.text.callout;linkText=;textSize=17;textColor=#666666;callDir=NE;callStyle=line;fontSize=17;fontColor=#666666;align=right;verticalAlign=top;strokeColor=#666666;fontFamily=Verdana;" parent="1" vertex="1">
          <mxGeometry x="1010" y="750" width="200" height="60" as="geometry" />
        </mxCell>
        <mxCell id="N_Fq8xxnLoXcReT2bSDC-5" value="&lt;b&gt;&lt;font face=&quot;Verdana&quot; style=&quot;font-size: 20px;&quot; color=&quot;#0a0a0a&quot;&gt;Article&lt;/font&gt;&lt;/b&gt;" style="strokeWidth=1;shadow=0;dashed=0;align=center;html=1;shape=mxgraph.mockup.text.callout;linkText=;textSize=17;textColor=#666666;callDir=NE;callStyle=line;fontSize=17;fontColor=#666666;align=right;verticalAlign=top;strokeColor=#666666;" parent="1" vertex="1">
          <mxGeometry x="990" y="385" width="200" height="100" as="geometry" />
        </mxCell>
        <mxCell id="N_Fq8xxnLoXcReT2bSDC-7" value="&lt;font face=&quot;Times New Roman&quot; data-font-src=&quot;https://fonts.googleapis.com/css?family=Josephine+Sans&quot; size=&quot;1&quot; style=&quot;&quot;&gt;&lt;span style=&quot;font-size: 16px;&quot;&gt;&lt;i&gt;Lorem ipsum dolor sit amet, consectetur adipisicing elit, sed do eiusmod tempor incididunt ut labore et dolore magna aliqua. Ut enim ad minim veniam, quis nostrud exercitation ullamco laboris nisi ut aliquip ex ea commodo consequat.&amp;nbsp;&lt;/i&gt;&lt;/span&gt;&lt;/font&gt;" style="text;spacingTop=-5;whiteSpace=wrap;html=1;align=center;fontSize=12;fontFamily=Helvetica;fillColor=none;strokeColor=none;fontColor=#0A0A0A;" parent="1" vertex="1">
          <mxGeometry x="320" y="280" width="470" height="150" as="geometry" />
        </mxCell>
        <mxCell id="N_Fq8xxnLoXcReT2bSDC-8" value="Kontakt oss" style="rounded=0;whiteSpace=wrap;html=1;strokeColor=#0A0A0A;fontFamily=Times New Roman;fontSize=14;fontColor=#0A0A0A;" parent="1" vertex="1">
          <mxGeometry x="480" y="370" width="125" height="20" as="geometry" />
        </mxCell>
        <mxCell id="w4bBEmWwiWPHxFd0khcd-1" value="&lt;span style=&quot;color: rgb(102, 102, 102); font-family: Helvetica; font-size: 17px; font-style: normal; font-variant-ligatures: normal; font-variant-caps: normal; font-weight: 400; letter-spacing: normal; orphans: 2; text-align: left; text-indent: 0px; text-transform: none; widows: 2; word-spacing: 0px; -webkit-text-stroke-width: 0px; background-color: rgb(248, 249, 250); float: none; display: inline !important;&quot;&gt;Hjem&lt;/span&gt;" style="text;whiteSpace=wrap;html=1;fontStyle=4" vertex="1" parent="1">
          <mxGeometry x="690" y="50" width="70" height="40" as="geometry" />
        </mxCell>
        <mxCell id="w4bBEmWwiWPHxFd0khcd-2" value="&lt;span style=&quot;color: rgb(102, 102, 102); font-family: Helvetica; font-size: 17px; font-style: normal; font-variant-ligatures: normal; font-variant-caps: normal; font-weight: 400; letter-spacing: normal; orphans: 2; text-align: left; text-indent: 0px; text-transform: none; widows: 2; word-spacing: 0px; -webkit-text-stroke-width: 0px; background-color: rgb(248, 249, 250); float: none; display: inline !important;&quot;&gt;&lt;span&gt;CMS&lt;/span&gt;&lt;/span&gt;" style="text;whiteSpace=wrap;html=1;fontStyle=4" vertex="1" parent="1">
          <mxGeometry x="740" y="50" width="70" height="40" as="geometry" />
        </mxCell>
        <mxCell id="w4bBEmWwiWPHxFd0khcd-3" value="&lt;span style=&quot;color: rgb(102, 102, 102); font-family: Helvetica; font-size: 17px; font-style: normal; font-variant-ligatures: normal; font-variant-caps: normal; font-weight: 400; letter-spacing: normal; orphans: 2; text-align: left; text-indent: 0px; text-transform: none; widows: 2; word-spacing: 0px; -webkit-text-stroke-width: 0px; background-color: rgb(248, 249, 250); float: none; display: inline !important;&quot;&gt;&lt;span&gt;UU vs SEO&lt;/span&gt;&lt;/span&gt;" style="text;whiteSpace=wrap;html=1;fontStyle=4" vertex="1" parent="1">
          <mxGeometry x="780" y="50" width="120" height="40" as="geometry" />
        </mxCell>
        <mxCell id="w4bBEmWwiWPHxFd0khcd-4" value="&lt;span style=&quot;color: rgb(102, 102, 102); font-family: Helvetica; font-size: 17px; font-style: normal; font-variant-ligatures: normal; font-variant-caps: normal; font-weight: 400; letter-spacing: normal; orphans: 2; text-align: left; text-indent: 0px; text-transform: none; widows: 2; word-spacing: 0px; -webkit-text-stroke-width: 0px; background-color: rgb(248, 249, 250); float: none; display: inline !important;&quot;&gt;Analyse&lt;/span&gt;" style="text;whiteSpace=wrap;html=1;fontStyle=4" vertex="1" parent="1">
          <mxGeometry x="870" y="50" width="90" height="40" as="geometry" />
        </mxCell>
        <mxCell id="w4bBEmWwiWPHxFd0khcd-5" value="&lt;span style=&quot;color: rgb(102, 102, 102); font-family: Helvetica; font-size: 17px; font-style: normal; font-variant-ligatures: normal; font-variant-caps: normal; font-weight: 400; letter-spacing: normal; orphans: 2; text-align: left; text-indent: 0px; text-transform: none; widows: 2; word-spacing: 0px; -webkit-text-stroke-width: 0px; background-color: rgb(248, 249, 250); float: none; display: inline !important;&quot;&gt;Kontakt oss&lt;/span&gt;" style="text;whiteSpace=wrap;html=1;fontStyle=4" vertex="1" parent="1">
          <mxGeometry x="940" y="50" width="120" height="40" as="geometry" />
        </mxCell>
        <mxCell id="w4bBEmWwiWPHxFd0khcd-7" value="Link" style="shape=rectangle;strokeColor=none;fillColor=none;linkText=;fontSize=17;fontColor=#0000ff;fontStyle=4;html=1;align=center;fontFamily=Times New Roman;" vertex="1" parent="1">
          <mxGeometry x="130" y="650" width="150" height="30" as="geometry" />
        </mxCell>
        <mxCell id="w4bBEmWwiWPHxFd0khcd-8" value="Link" style="shape=rectangle;strokeColor=none;fillColor=none;linkText=;fontSize=17;fontColor=#0000ff;fontStyle=4;html=1;align=center;fontFamily=Times New Roman;" vertex="1" parent="1">
          <mxGeometry x="480" y="650" width="150" height="30" as="geometry" />
        </mxCell>
        <mxCell id="w4bBEmWwiWPHxFd0khcd-9" value="Link" style="shape=rectangle;strokeColor=none;fillColor=none;linkText=;fontSize=17;fontColor=#0000ff;fontStyle=4;html=1;align=center;fontFamily=Times New Roman;" vertex="1" parent="1">
          <mxGeometry x="810" y="650" width="150" height="30" as="geometry" />
        </mxCell>
      </root>
    </mxGraphModel>
  </diagram>
</mxfile>
